<?xml version="1.0" encoding="UTF-8"?>
<svg height="128px" viewBox="0 0 128 128" width="128px" xmlns="http://www.w3.org/2000/svg" xmlns:xlink="http://www.w3.org/1999/xlink">
    <filter id="a" height="100%" width="100%" x="0%" y="0%">
        <feColorMatrix color-interpolation-filters="sRGB" values="0 0 0 0 1 0 0 0 0 1 0 0 0 0 1 0 0 0 1 0"/>
    </filter>
    <linearGradient id="b" gradientTransform="matrix(1 0 0 0.769237 -8 39.076385)" gradientUnits="userSpaceOnUse" x1="15.999999" x2="128" y1="73.999687" y2="73.999687">
        <stop offset="0" stop-color="#3d3846"/>
        <stop offset="0.0357143" stop-color="#5e5c64"/>
        <stop offset="0.0714286" stop-color="#3d3846"/>
        <stop offset="0.928571" stop-color="#3d3846"/>
        <stop offset="0.964286" stop-color="#5e5c64"/>
        <stop offset="1" stop-color="#3d3846"/>
    </linearGradient>
    <mask id="c">
        <g filter="url(#a)">
            <rect fill-opacity="0.2" height="153.6" width="153.6" x="-12.8" y="-12.8"/>
        </g>
    </mask>
    <clipPath id="d">
        <rect height="152" width="192"/>
    </clipPath>
    <mask id="e">
        <g filter="url(#a)">
            <rect fill-opacity="0.2" height="153.6" width="153.6" x="-12.8" y="-12.8"/>
        </g>
    </mask>
    <clipPath id="f">
        <rect height="152" width="192"/>
    </clipPath>
    <mask id="g">
        <g filter="url(#a)">
            <rect fill-opacity="0.2" height="153.6" width="153.6" x="-12.8" y="-12.8"/>
        </g>
    </mask>
    <clipPath id="h">
        <rect height="152" width="192"/>
    </clipPath>
    <mask id="i">
        <g filter="url(#a)">
            <rect fill-opacity="0.2" height="153.6" width="153.6" x="-12.8" y="-12.8"/>
        </g>
    </mask>
    <clipPath id="j">
        <rect height="152" width="192"/>
    </clipPath>
    <mask id="k">
        <g filter="url(#a)">
            <rect fill-opacity="0.2" height="153.6" width="153.6" x="-12.8" y="-12.8"/>
        </g>
    </mask>
    <clipPath id="l">
        <rect height="152" width="192"/>
    </clipPath>
    <mask id="m">
        <g filter="url(#a)">
            <rect fill-opacity="0.2" height="153.6" width="153.6" x="-12.8" y="-12.8"/>
        </g>
    </mask>
    <clipPath id="n">
        <rect height="152" width="192"/>
    </clipPath>
    <mask id="o">
        <g filter="url(#a)">
            <rect fill-opacity="0.2" height="153.6" width="153.6" x="-12.8" y="-12.8"/>
        </g>
    </mask>
    <clipPath id="p">
        <rect height="152" width="192"/>
    </clipPath>
    <mask id="q">
        <g filter="url(#a)">
            <rect fill-opacity="0.2" height="153.6" width="153.6" x="-12.8" y="-12.8"/>
        </g>
    </mask>
    <clipPath id="r">
        <rect height="152" width="192"/>
    </clipPath>
    <mask id="s">
        <g filter="url(#a)">
            <rect fill-opacity="0.2" height="153.6" width="153.6" x="-12.8" y="-12.8"/>
        </g>
    </mask>
    <clipPath id="t">
        <rect height="152" width="192"/>
    </clipPath>
    <mask id="u">
        <g filter="url(#a)">
            <rect fill-opacity="0.2" height="153.6" width="153.6" x="-12.8" y="-12.8"/>
        </g>
    </mask>
    <clipPath id="v">
        <rect height="152" width="192"/>
    </clipPath>
    <mask id="w">
        <g filter="url(#a)">
            <rect fill-opacity="0.2" height="153.6" width="153.6" x="-12.8" y="-12.8"/>
        </g>
    </mask>
    <clipPath id="x">
        <rect height="152" width="192"/>
    </clipPath>
    <mask id="y">
        <g filter="url(#a)">
            <rect fill-opacity="0.2" height="153.6" width="153.6" x="-12.8" y="-12.8"/>
        </g>
    </mask>
    <clipPath id="z">
        <rect height="152" width="192"/>
    </clipPath>
    <mask id="A">
        <g filter="url(#a)">
            <rect fill-opacity="0.2" height="153.6" width="153.6" x="-12.8" y="-12.8"/>
        </g>
    </mask>
    <clipPath id="B">
        <rect height="152" width="192"/>
    </clipPath>
    <mask id="C">
        <g filter="url(#a)">
            <rect fill-opacity="0.2" height="153.6" width="153.6" x="-12.8" y="-12.8"/>
        </g>
    </mask>
    <clipPath id="D">
        <rect height="152" width="192"/>
    </clipPath>
    <mask id="E">
        <g filter="url(#a)">
            <rect fill-opacity="0.2" height="153.6" width="153.6" x="-12.8" y="-12.8"/>
        </g>
    </mask>
    <clipPath id="F">
        <rect height="152" width="192"/>
    </clipPath>
    <mask id="G">
        <g filter="url(#a)">
            <rect fill-opacity="0.2" height="153.6" width="153.6" x="-12.8" y="-12.8"/>
        </g>
    </mask>
    <clipPath id="H">
        <rect height="152" width="192"/>
    </clipPath>
    <mask id="I">
        <g filter="url(#a)">
            <rect fill-opacity="0.2" height="153.6" width="153.6" x="-12.8" y="-12.8"/>
        </g>
    </mask>
    <clipPath id="J">
        <rect height="152" width="192"/>
    </clipPath>
    <mask id="K">
        <g filter="url(#a)">
            <rect fill-opacity="0.2" height="153.6" width="153.6" x="-12.8" y="-12.8"/>
        </g>
    </mask>
    <clipPath id="L">
        <rect height="152" width="192"/>
    </clipPath>
    <mask id="M">
        <g filter="url(#a)">
            <rect fill-opacity="0.2" height="153.6" width="153.6" x="-12.8" y="-12.8"/>
        </g>
    </mask>
    <clipPath id="N">
        <rect height="152" width="192"/>
    </clipPath>
    <mask id="O">
        <g filter="url(#a)">
            <rect fill-opacity="0.2" height="153.6" width="153.6" x="-12.8" y="-12.8"/>
        </g>
    </mask>
    <clipPath id="P">
        <rect height="152" width="192"/>
    </clipPath>
    <path d="m 16 76 h 96 c 4.417969 0 8 3.582031 8 8 v 24 c 0 4.417969 -3.582031 8 -8 8 h -96 c -4.417969 0 -8 -3.582031 -8 -8 v -24 c 0 -4.417969 3.582031 -8 8 -8 z m 0 0" fill="url(#b)"/>
    <path d="m 16 28 h 96 c 4.417969 0 8 3.582031 8 8 v 64 c 0 4.417969 -3.582031 8 -8 8 h -96 c -4.417969 0 -8 -3.582031 -8 -8 v -64 c 0 -4.417969 3.582031 -8 8 -8 z m 0 0" fill="#5e5c64"/>
    <path d="m 26 65 c -3.3125 0 -6 -2.6875 -6 -6 s 2.6875 -6 6 -6 s 6 2.6875 6 6 s -2.6875 6 -6 6 z m 0 0" fill="#e66100"/>
    <path d="m 26 83 c -3.3125 0 -6 -2.6875 -6 -6 s 2.6875 -6 6 -6 s 6 2.6875 6 6 s -2.6875 6 -6 6 z m 0 0" fill="#1a5fb4"/>
    <path d="m 26 101 c -3.3125 0 -6 -2.6875 -6 -6 s 2.6875 -6 6 -6 s 6 2.6875 6 6 s -2.6875 6 -6 6 z m 0 0" fill="#f6f5f4"/>
    <path d="m 45 65 c -3.3125 0 -6 -2.6875 -6 -6 s 2.6875 -6 6 -6 s 6 2.6875 6 6 s -2.6875 6 -6 6 z m 0 0" fill="#1c71d8"/>
    <path d="m 45 83 c -3.3125 0 -6 -2.6875 -6 -6 s 2.6875 -6 6 -6 s 6 2.6875 6 6 s -2.6875 6 -6 6 z m 0 0" fill="#26a269"/>
    <path d="m 45 101 c -3.3125 0 -6 -2.6875 -6 -6 s 2.6875 -6 6 -6 s 6 2.6875 6 6 s -2.6875 6 -6 6 z m 0 0" fill="#c0bfbc"/>
    <path d="m 64 65 c -3.3125 0 -6 -2.6875 -6 -6 s 2.6875 -6 6 -6 s 6 2.6875 6 6 s -2.6875 6 -6 6 z m 0 0" fill="#33d17a"/>
    <path d="m 64 83 c -3.3125 0 -6 -2.6875 -6 -6 s 2.6875 -6 6 -6 s 6 2.6875 6 6 s -2.6875 6 -6 6 z m 0 0" fill="#c64600"/>
    <path d="m 64 101 c -3.3125 0 -6 -2.6875 -6 -6 s 2.6875 -6 6 -6 s 6 2.6875 6 6 s -2.6875 6 -6 6 z m 0 0" fill="#9a9996"/>
    <path d="m 83 65 c -3.3125 0 -6 -2.6875 -6 -6 s 2.6875 -6 6 -6 s 6 2.6875 6 6 s -2.6875 6 -6 6 z m 0 0" fill="#62a0ea"/>
    <path d="m 26 47 c -3.3125 0 -6 -2.6875 -6 -6 s 2.6875 -6 6 -6 s 6 2.6875 6 6 s -2.6875 6 -6 6 z m 0 0" fill="#2ec27e"/>
    <path d="m 45 47 c -3.3125 0 -6 -2.6875 -6 -6 s 2.6875 -6 6 -6 s 6 2.6875 6 6 s -2.6875 6 -6 6 z m 0 0" fill="#57e389"/>
    <path d="m 64 47 c -3.3125 0 -6 -2.6875 -6 -6 s 2.6875 -6 6 -6 s 6 2.6875 6 6 s -2.6875 6 -6 6 z m 0 0" fill="#9141ac"/>
    <path d="m 83 47 c -3.3125 0 -6 -2.6875 -6 -6 s 2.6875 -6 6 -6 s 6 2.6875 6 6 s -2.6875 6 -6 6 z m 0 0" fill="#62a0ea"/>
    <path d="m 102 65 c -3.3125 0 -6 -2.6875 -6 -6 s 2.6875 -6 6 -6 s 6 2.6875 6 6 s -2.6875 6 -6 6 z m 0 0" fill="#e5a50a"/>
    <path d="m 102 47 c -3.3125 0 -6 -2.6875 -6 -6 s 2.6875 -6 6 -6 s 6 2.6875 6 6 s -2.6875 6 -6 6 z m 0 0" fill="#dc8add"/>
    <path d="m 83 83 c -3.3125 0 -6 -2.6875 -6 -6 s 2.6875 -6 6 -6 s 6 2.6875 6 6 s -2.6875 6 -6 6 z m 0 0" fill="#e5a50a"/>
    <path d="m 83 101 c -3.3125 0 -6 -2.6875 -6 -6 s 2.6875 -6 6 -6 s 6 2.6875 6 6 s -2.6875 6 -6 6 z m 0 0" fill="#3d3846"/>
    <path d="m 102 83 c -3.3125 0 -6 -2.6875 -6 -6 s 2.6875 -6 6 -6 s 6 2.6875 6 6 s -2.6875 6 -6 6 z m 0 0" fill="#613583"/>
    <path d="m 102 101 c -3.3125 0 -6 -2.6875 -6 -6 s 2.6875 -6 6 -6 s 6 2.6875 6 6 s -2.6875 6 -6 6 z m 0 0" fill="#241f31"/>
    <g mask="url(#c)">
        <g clip-path="url(#d)" transform="matrix(1 0 0 1 -8 -16)">
            <path d="m 34 51 c -3.3125 0 -6 2.6875 -6 6 c 0 0.339844 0.03125 0.675781 0.082031 1 c 0.476563 -2.835938 2.945313 -5 5.917969 -5 s 5.441406 2.164062 5.914062 5 c 0.054688 -0.324219 0.085938 -0.660156 0.085938 -1 c 0 -3.3125 -2.6875 -6 -6 -6 z m 0 0"/>
        </g>
    </g>
    <g mask="url(#e)">
        <g clip-path="url(#f)" transform="matrix(1 0 0 1 -8 -16)">
            <path d="m 53 51 c -3.3125 0 -6 2.6875 -6 6 c 0 0.339844 0.03125 0.675781 0.082031 1 c 0.476563 -2.835938 2.945313 -5 5.917969 -5 s 5.441406 2.164062 5.914062 5 c 0.054688 -0.324219 0.085938 -0.660156 0.085938 -1 c 0 -3.3125 -2.6875 -6 -6 -6 z m 0 0"/>
        </g>
    </g>
    <g mask="url(#g)">
        <g clip-path="url(#h)" transform="matrix(1 0 0 1 -8 -16)">
            <path d="m 72 51 c -3.3125 0 -6 2.6875 -6 6 c 0 0.339844 0.03125 0.675781 0.082031 1 c 0.476563 -2.835938 2.945313 -5 5.917969 -5 s 5.441406 2.164062 5.914062 5 c 0.054688 -0.324219 0.085938 -0.660156 0.085938 -1 c 0 -3.3125 -2.6875 -6 -6 -6 z m 0 0"/>
        </g>
    </g>
    <g mask="url(#i)">
        <g clip-path="url(#j)" transform="matrix(1 0 0 1 -8 -16)">
            <path d="m 91 51 c -3.3125 0 -6 2.6875 -6 6 c 0 0.339844 0.03125 0.675781 0.082031 1 c 0.476563 -2.835938 2.945313 -5 5.917969 -5 s 5.441406 2.164062 5.914062 5 c 0.054688 -0.324219 0.085938 -0.660156 0.085938 -1 c 0 -3.3125 -2.6875 -6 -6 -6 z m 0 0"/>
        </g>
    </g>
    <g mask="url(#k)">
        <g clip-path="url(#l)" transform="matrix(1 0 0 1 -8 -16)">
            <path d="m 34 69 c -3.3125 0 -6 2.6875 -6 6 c 0 0.339844 0.03125 0.675781 0.085938 1 c 0.472656 -2.835938 2.941406 -5 5.914062 -5 s 5.441406 2.164062 5.917969 5 c 0.050781 -0.324219 0.082031 -0.660156 0.082031 -1 c 0 -3.3125 -2.6875 -6 -6 -6 z m 0 0"/>
        </g>
    </g>
    <g mask="url(#m)">
        <g clip-path="url(#n)" transform="matrix(1 0 0 1 -8 -16)">
            <path d="m 53 69 c -3.3125 0 -6 2.6875 -6 6 c 0 0.339844 0.03125 0.675781 0.085938 1 c 0.472656 -2.835938 2.941406 -5 5.914062 -5 s 5.441406 2.164062 5.917969 5 c 0.050781 -0.324219 0.082031 -0.660156 0.082031 -1 c 0 -3.3125 -2.6875 -6 -6 -6 z m 0 0"/>
        </g>
    </g>
    <g mask="url(#o)">
        <g clip-path="url(#p)" transform="matrix(1 0 0 1 -8 -16)">
            <path d="m 72 69 c -3.3125 0 -6 2.6875 -6 6 c 0 0.339844 0.03125 0.675781 0.085938 1 c 0.472656 -2.835938 2.941406 -5 5.914062 -5 s 5.441406 2.164062 5.917969 5 c 0.050781 -0.324219 0.082031 -0.660156 0.082031 -1 c 0 -3.3125 -2.6875 -6 -6 -6 z m 0 0"/>
        </g>
    </g>
    <g mask="url(#q)">
        <g clip-path="url(#r)" transform="matrix(1 0 0 1 -8 -16)">
            <path d="m 91 69 c -3.3125 0 -6 2.6875 -6 6 c 0 0.339844 0.03125 0.675781 0.085938 1 c 0.472656 -2.835938 2.941406 -5 5.914062 -5 s 5.441406 2.164062 5.917969 5 c 0.050781 -0.324219 0.082031 -0.660156 0.082031 -1 c 0 -3.3125 -2.6875 -6 -6 -6 z m 0 0"/>
        </g>
    </g>
    <g mask="url(#s)">
        <g clip-path="url(#t)" transform="matrix(1 0 0 1 -8 -16)">
            <path d="m 34 87 c -3.3125 0 -6 2.6875 -6 6 c 0 0.339844 0.03125 0.675781 0.085938 1 c 0.472656 -2.835938 2.941406 -5 5.914062 -5 s 5.441406 2.164062 5.917969 5 c 0.050781 -0.324219 0.082031 -0.660156 0.082031 -1 c 0 -3.3125 -2.6875 -6 -6 -6 z m 0 0"/>
        </g>
    </g>
    <g mask="url(#u)">
        <g clip-path="url(#v)" transform="matrix(1 0 0 1 -8 -16)">
            <path d="m 110 87 c -3.3125 0 -6 2.6875 -6 6 c 0 0.339844 0.03125 0.675781 0.082031 1 c 0.476563 -2.835938 2.945313 -5 5.917969 -5 s 5.441406 2.164062 5.914062 5 c 0.054688 -0.324219 0.085938 -0.660156 0.085938 -1 c 0 -3.3125 -2.6875 -6 -6 -6 z m 0 0"/>
        </g>
    </g>
    <g mask="url(#w)">
        <g clip-path="url(#x)" transform="matrix(1 0 0 1 -8 -16)">
            <path d="m 53 87 c -3.3125 0 -6 2.6875 -6 6 c 0 0.339844 0.03125 0.675781 0.085938 1 c 0.472656 -2.835938 2.941406 -5 5.914062 -5 s 5.441406 2.164062 5.917969 5 c 0.050781 -0.324219 0.082031 -0.660156 0.082031 -1 c 0 -3.3125 -2.6875 -6 -6 -6 z m 0 0"/>
        </g>
    </g>
    <g mask="url(#y)">
        <g clip-path="url(#z)" transform="matrix(1 0 0 1 -8 -16)">
            <path d="m 110 51 c -3.3125 0 -6 2.6875 -6 6 c 0 0.339844 0.03125 0.675781 0.082031 1 c 0.476563 -2.835938 2.945313 -5 5.917969 -5 s 5.441406 2.164062 5.914062 5 c 0.054688 -0.324219 0.085938 -0.660156 0.085938 -1 c 0 -3.3125 -2.6875 -6 -6 -6 z m 0 0"/>
        </g>
    </g>
    <g mask="url(#A)">
        <g clip-path="url(#B)" transform="matrix(1 0 0 1 -8 -16)">
            <path d="m 72 87 c -3.3125 0 -6 2.6875 -6 6 c 0 0.339844 0.03125 0.675781 0.085938 1 c 0.472656 -2.835938 2.941406 -5 5.914062 -5 s 5.441406 2.164062 5.917969 5 c 0.050781 -0.324219 0.082031 -0.660156 0.082031 -1 c 0 -3.3125 -2.6875 -6 -6 -6 z m 0 0"/>
        </g>
    </g>
    <g mask="url(#C)">
        <g clip-path="url(#D)" transform="matrix(1 0 0 1 -8 -16)">
            <path d="m 91 87 c -3.3125 0 -6 2.6875 -6 6 c 0 0.339844 0.03125 0.675781 0.085938 1 c 0.472656 -2.835938 2.941406 -5 5.914062 -5 s 5.441406 2.164062 5.917969 5 c 0.050781 -0.324219 0.082031 -0.660156 0.082031 -1 c 0 -3.3125 -2.6875 -6 -6 -6 z m 0 0"/>
        </g>
    </g>
    <g mask="url(#E)">
        <g clip-path="url(#F)" transform="matrix(1 0 0 1 -8 -16)">
            <path d="m 34 105 c -3.3125 0 -6 2.6875 -6 6 c 0 0.339844 0.03125 0.675781 0.082031 1 c 0.476563 -2.835938 2.945313 -5 5.917969 -5 s 5.441406 2.164062 5.917969 5 c 0.050781 -0.324219 0.082031 -0.660156 0.082031 -1 c 0 -3.3125 -2.6875 -6 -6 -6 z m 0 0"/>
        </g>
    </g>
    <g mask="url(#G)">
        <g clip-path="url(#H)" transform="matrix(1 0 0 1 -8 -16)">
            <path d="m 110 105 c -3.3125 0 -6 2.6875 -6 6 c 0 0.339844 0.027344 0.675781 0.085938 1 c 0.472656 -2.835938 2.941406 -5 5.914062 -5 s 5.441406 2.164062 5.917969 5 c 0.050781 -0.324219 0.082031 -0.660156 0.082031 -1 c 0 -3.3125 -2.6875 -6 -6 -6 z m 0 0"/>
        </g>
    </g>
    <g mask="url(#I)">
        <g clip-path="url(#J)" transform="matrix(1 0 0 1 -8 -16)">
            <path d="m 53 105 c -3.3125 0 -6 2.6875 -6 6 c 0 0.339844 0.03125 0.675781 0.082031 1 c 0.476563 -2.835938 2.945313 -5 5.917969 -5 s 5.441406 2.164062 5.917969 5 c 0.050781 -0.324219 0.082031 -0.660156 0.082031 -1 c 0 -3.3125 -2.6875 -6 -6 -6 z m 0 0"/>
        </g>
    </g>
    <g mask="url(#K)">
        <g clip-path="url(#L)" transform="matrix(1 0 0 1 -8 -16)">
            <path d="m 72 105 c -3.3125 0 -6 2.6875 -6 6 c 0 0.339844 0.03125 0.675781 0.082031 1 c 0.476563 -2.835938 2.945313 -5 5.917969 -5 s 5.441406 2.164062 5.917969 5 c 0.050781 -0.324219 0.082031 -0.660156 0.082031 -1 c 0 -3.3125 -2.6875 -6 -6 -6 z m 0 0"/>
        </g>
    </g>
    <g mask="url(#M)">
        <g clip-path="url(#N)" transform="matrix(1 0 0 1 -8 -16)">
            <path d="m 91 105 c -3.3125 0 -6 2.6875 -6 6 c 0 0.339844 0.03125 0.675781 0.082031 1 c 0.476563 -2.835938 2.945313 -5 5.917969 -5 s 5.441406 2.164062 5.917969 5 c 0.050781 -0.324219 0.082031 -0.660156 0.082031 -1 c 0 -3.3125 -2.6875 -6 -6 -6 z m 0 0"/>
        </g>
    </g>
    <g mask="url(#O)">
        <g clip-path="url(#P)" transform="matrix(1 0 0 1 -8 -16)">
            <path d="m 110 69 c -3.3125 0 -6 2.6875 -6 6 c 0 0.339844 0.03125 0.675781 0.082031 1 c 0.476563 -2.835938 2.945313 -5 5.917969 -5 s 5.441406 2.164062 5.914062 5 c 0.054688 -0.324219 0.085938 -0.660156 0.085938 -1 c 0 -3.3125 -2.6875 -6 -6 -6 z m 0 0"/>
        </g>
    </g>
</svg>
